<svg viewBox="0 0 64 64" fill="none" xmlns="http://www.w3.org/2000/svg">
  <defs>
    <linearGradient id="faviconGradient" x1="0%" y1="0%" x2="100%" y2="100%">
      <stop offset="0%" stopColor="#06b6d4" />
      <stop offset="50%" stopColor="#0891b2" />
      <stop offset="100%" stopColor="#0e7490" />
    </linearGradient>
    <linearGradient id="faviconSpark" x1="0%" y1="0%" x2="100%" y2="100%">
      <stop offset="0%" stopColor="#22d3ee" stopOpacity="0.9" />
      <stop offset="100%" stopColor="#06b6d4" stopOpacity="0.7" />
    </linearGradient>
    <linearGradient id="faviconLight" x1="0%" y1="0%" x2="100%" y2="100%">
      <stop offset="0%" stopColor="#ffffff" />
      <stop offset="100%" stopColor="#a5f3fc" />
    </linearGradient>
    <filter id="faviconGlow">
      <feGaussianBlur stdDeviation="1.5" result="coloredBlur"/>
      <feMerge>
        <feMergeNode in="coloredBlur"/>
        <feMergeNode in="SourceGraphic"/>
      </feMerge>
    </filter>
  </defs>
  
  <!-- Neural Network Background -->
  <circle cx="32" cy="32" r="28" fill="url(#faviconGradient)" opacity="0.2"/>
  
  <!-- Neural Network Nodes -->
  <circle cx="24" cy="24" r="2.5" fill="#22d3ee" filter="url(#faviconGlow)"/>
  <circle cx="40" cy="24" r="2.5" fill="#22d3ee" filter="url(#faviconGlow)"/>
  <circle cx="32" cy="32" r="3" fill="#06b6d4" filter="url(#faviconGlow)"/>
  <circle cx="20" cy="36" r="2" fill="#0891b2" filter="url(#faviconGlow)"/>
  <circle cx="44" cy="36" r="2" fill="#0891b2" filter="url(#faviconGlow)"/>
  <circle cx="32" cy="44" r="2.5" fill="#0e7490" filter="url(#faviconGlow)"/>
  
  <!-- Connection Lines -->
  <line x1="24" y1="24" x2="32" y2="32" stroke="url(#faviconSpark)" strokeWidth="1.5" opacity="0.8"/>
  <line x1="40" y1="24" x2="32" y2="32" stroke="url(#faviconSpark)" strokeWidth="1.5" opacity="0.8"/>
  <line x1="32" y1="32" x2="32" y2="44" stroke="url(#faviconSpark)" strokeWidth="1.5" opacity="0.8"/>
  <line x1="20" y1="36" x2="32" y2="32" stroke="url(#faviconSpark)" strokeWidth="1.5" opacity="0.8"/>
  <line x1="44" y1="36" x2="32" y2="32" stroke="url(#faviconSpark)" strokeWidth="1.5" opacity="0.8"/>
  
  <!-- Light Rays -->
  <path d="M32 8 L 34 18 L 36 8" stroke="url(#faviconLight)" strokeWidth="1.5" fill="none" opacity="1" strokeLinecap="round"/>
  
  <!-- Bold "C" Letter -->
  <path d="M26 20 C 20 20, 16 24, 16 30 L 16 34 C 16 40, 20 44, 26 44" 
        stroke="white" 
        strokeWidth="5" 
        fill="none" 
        strokeLinecap="round"
        strokeLinejoin="round"
        filter="url(#faviconGlow)"/>
  
  <!-- Spark Elements -->
  <circle cx="42" cy="22" r="1.5" fill="#22d3ee" opacity="1"/>
  <circle cx="22" cy="48" r="1.2" fill="#0891b2" opacity="1"/>
</svg>

